<?xml version="1.0" encoding="UTF-8" standalone="no"?>
<!DOCTYPE svg PUBLIC "-//W3C//DTD SVG 1.1//EN"
 "http://www.w3.org/Graphics/SVG/1.1/DTD/svg11.dtd">
<!-- Generated by graphviz version 2.43.0 (0)
 -->
<!-- Title: pastafarianism Pages: 1 -->
<svg width="678pt" height="188pt"
 viewBox="0.00 0.00 677.84 188.00" xmlns="http://www.w3.org/2000/svg" xmlns:xlink="http://www.w3.org/1999/xlink">
<g id="graph0" class="graph" transform="scale(1 1) rotate(0) translate(4 184)">
<title>pastafarianism</title>
<polygon fill="white" stroke="transparent" points="-4,4 -4,-184 673.84,-184 673.84,4 -4,4"/>
<!-- Blackboard -->
<g id="node1" class="node">
<title>Blackboard</title>
<polygon fill="orange" stroke="black" points="236.5,-180 155.5,-180 155.5,-144 236.5,-144 236.5,-180"/>
<text text-anchor="middle" x="196" y="-159.8" font-family="Times,serif" font-size="9.00">Ⓜ Blackboard</text>
</g>
<!-- Set Nested -->
<g id="node2" class="node">
<title>Set Nested</title>
<ellipse fill="gray" stroke="black" cx="61" cy="-90" rx="39.02" ry="18"/>
<text text-anchor="middle" x="61" y="-87.8" font-family="Times,serif" font-size="9.00">Set Nested</text>
</g>
<!-- Blackboard&#45;&gt;Set Nested -->
<g id="edge1" class="edge">
<title>Blackboard&#45;&gt;Set Nested</title>
<path fill="none" stroke="black" d="M162.98,-143.88C142.4,-133.21 115.97,-119.51 95.18,-108.72"/>
<polygon fill="black" stroke="black" points="96.55,-105.49 86.07,-104 93.33,-111.71 96.55,-105.49"/>
</g>
<!-- Writer -->
<g id="node3" class="node">
<title>Writer</title>
<ellipse fill="gray" stroke="black" cx="145" cy="-90" rx="27.27" ry="18"/>
<text text-anchor="middle" x="145" y="-87.8" font-family="Times,serif" font-size="9.00">Writer</text>
</g>
<!-- Blackboard&#45;&gt;Writer -->
<g id="edge2" class="edge">
<title>Blackboard&#45;&gt;Writer</title>
<path fill="none" stroke="black" d="M183.39,-143.7C177.07,-135.02 169.31,-124.37 162.43,-114.92"/>
<polygon fill="black" stroke="black" points="165.14,-112.69 156.42,-106.67 159.48,-116.81 165.14,-112.69"/>
</g>
<!-- Check Nested Foo -->
<g id="node4" class="node">
<title>Check Nested Foo</title>
<ellipse fill="gray" stroke="black" cx="248" cy="-90" rx="58.13" ry="18"/>
<text text-anchor="middle" x="248" y="-87.8" font-family="Times,serif" font-size="9.00">Check Nested Foo</text>
</g>
<!-- Blackboard&#45;&gt;Check Nested Foo -->
<g id="edge3" class="edge">
<title>Blackboard&#45;&gt;Check Nested Foo</title>
<path fill="none" stroke="black" d="M208.85,-143.7C215.12,-135.27 222.76,-124.97 229.63,-115.73"/>
<polygon fill="black" stroke="black" points="232.5,-117.74 235.65,-107.62 226.88,-113.56 232.5,-117.74"/>
</g>
<!-- ParamsAndState -->
<g id="node5" class="node">
<title>ParamsAndState</title>
<ellipse fill="gray" stroke="black" cx="378" cy="-90" rx="53.89" ry="18"/>
<text text-anchor="middle" x="378" y="-87.8" font-family="Times,serif" font-size="9.00">ParamsAndState</text>
</g>
<!-- Blackboard&#45;&gt;ParamsAndState -->
<g id="edge4" class="edge">
<title>Blackboard&#45;&gt;ParamsAndState</title>
<path fill="none" stroke="black" d="M236.84,-145.29C265.85,-134.14 304.73,-119.18 334.34,-107.79"/>
<polygon fill="black" stroke="black" points="335.93,-110.93 344,-104.08 333.41,-104.4 335.93,-110.93"/>
</g>
<!-- /nested -->
<g id="node10" class="node">
<title>/nested</title>
<polygon fill="white" stroke="blue" points="54,-26.5 0,-26.5 0,-9.5 54,-9.5 54,-26.5"/>
<text text-anchor="middle" x="27" y="-16.1" font-family="Times,serif" font-size="8.00" fill="blue">/nested: &#45;</text>
</g>
<!-- Set Nested&#45;&gt;/nested -->
<g id="edge10" class="edge">
<title>Set Nested&#45;&gt;/nested</title>
<path fill="none" stroke="blue" d="M52.77,-72.05C47.47,-61.14 40.6,-47 35.29,-36.06"/>
<polygon fill="blue" stroke="blue" points="38.29,-34.23 30.77,-26.76 31.99,-37.29 38.29,-34.23"/>
</g>
<!-- /spaghetti -->
<g id="node8" class="node">
<title>/spaghetti</title>
<polygon fill="white" stroke="blue" points="271.5,-26.5 206.5,-26.5 206.5,-9.5 271.5,-9.5 271.5,-26.5"/>
<text text-anchor="middle" x="239" y="-16.1" font-family="Times,serif" font-size="8.00" fill="blue">/spaghetti: &#45;</text>
</g>
<!-- Writer&#45;&gt;/spaghetti -->
<g id="edge7" class="edge">
<title>Writer&#45;&gt;/spaghetti</title>
<path fill="none" stroke="blue" d="M162.68,-75.83C179.1,-63.6 203.48,-45.45 220.24,-32.97"/>
<polygon fill="blue" stroke="blue" points="222.74,-35.47 228.67,-26.69 218.56,-29.86 222.74,-35.47"/>
</g>
<!-- /state/current_speed -->
<g id="node9" class="node">
<title>/state/current_speed</title>
<polygon fill="white" stroke="blue" points="413.5,-26.5 306.5,-26.5 306.5,-9.5 413.5,-9.5 413.5,-26.5"/>
<text text-anchor="middle" x="360" y="-16.1" font-family="Times,serif" font-size="8.00" fill="blue">/state/current_speed: &#45;</text>
</g>
<!-- ParamsAndState&#45;&gt;/state/current_speed -->
<g id="edge8" class="edge">
<title>ParamsAndState&#45;&gt;/state/current_speed</title>
<path fill="none" stroke="blue" d="M373.64,-72.05C370.89,-61.36 367.35,-47.58 364.56,-36.74"/>
<polygon fill="blue" stroke="blue" points="367.88,-35.58 362,-26.76 361.1,-37.32 367.88,-35.58"/>
</g>
<!-- /dude -->
<g id="node6" class="node">
<title>/dude</title>
<polygon fill="white" stroke="blue" points="154.5,-26.5 93.5,-26.5 93.5,-9.5 154.5,-9.5 154.5,-26.5"/>
<text text-anchor="middle" x="124" y="-16.1" font-family="Times,serif" font-size="8.00" fill="blue">/dude: Bob</text>
</g>
<!-- /dude&#45;&gt;Writer -->
<g id="edge5" class="edge">
<title>/dude&#45;&gt;Writer</title>
<path fill="none" stroke="green" d="M126.33,-26.76C128.9,-35.34 133.18,-49.61 137,-62.33"/>
<polygon fill="green" stroke="green" points="133.69,-63.48 139.92,-72.05 140.4,-61.47 133.69,-63.48"/>
</g>
<!-- Configuration -->
<g id="node7" class="node">
<title>Configuration</title>
<ellipse fill="gray" stroke="blue" cx="633" cy="-18" rx="36.68" ry="18"/>
<text text-anchor="middle" x="633" y="-16.4" font-family="Times,serif" font-size="7.00" fill="blue">Configuration</text>
</g>
<!-- Configuration&#45;&gt;/dude -->
<g id="edge6" class="edge">
<title>Configuration&#45;&gt;/dude</title>
<path fill="none" stroke="blue" d="M614.53,-33.99C604.46,-41.66 591.34,-50.02 578,-54 498.78,-77.62 286.9,-70.98 206,-54 185.33,-49.66 163.52,-39.8 147.59,-31.49"/>
<polygon fill="blue" stroke="blue" points="148.95,-28.25 138.49,-26.58 145.63,-34.41 148.95,-28.25"/>
</g>
<!-- /parameters/default_speed -->
<g id="node11" class="node">
<title>/parameters/default_speed</title>
<polygon fill="white" stroke="blue" points="578,-26.5 432,-26.5 432,-9.5 578,-9.5 578,-26.5"/>
<text text-anchor="middle" x="505" y="-16.1" font-family="Times,serif" font-size="8.00" fill="blue">/parameters/default_speed: 30.0</text>
</g>
<!-- Configuration&#45;&gt;/parameters/default_speed -->
<g id="edge12" class="edge">
<title>Configuration&#45;&gt;/parameters/default_speed</title>
<path fill="none" stroke="deepskyblue" d="M595.96,-18C593.5,-18 591.05,-18 588.59,-18"/>
<polygon fill="deepskyblue" stroke="deepskyblue" points="588.5,-14.5 578.5,-18 588.5,-21.5 588.5,-14.5"/>
</g>
<!-- /nested&#45;&gt;Check Nested Foo -->
<g id="edge9" class="edge">
<title>/nested&#45;&gt;Check Nested Foo</title>
<path fill="none" stroke="green" d="M50.9,-26.57C86.19,-37.75 153,-58.91 198.98,-73.47"/>
<polygon fill="green" stroke="green" points="198.15,-76.88 208.74,-76.57 200.27,-70.21 198.15,-76.88"/>
</g>
<!-- /parameters/default_speed&#45;&gt;ParamsAndState -->
<g id="edge11" class="edge">
<title>/parameters/default_speed&#45;&gt;ParamsAndState</title>
<path fill="none" stroke="green" d="M491.32,-26.54C472.84,-36.72 439.23,-55.25 413.4,-69.49"/>
<polygon fill="green" stroke="green" points="411.69,-66.43 404.62,-74.33 415.07,-72.56 411.69,-66.43"/>
</g>
</g>
</svg>
