<?xml version="1.0" encoding="UTF-8" standalone="no"?>
<!DOCTYPE svg PUBLIC "-//W3C//DTD SVG 1.1//EN"
 "http://www.w3.org/Graphics/SVG/1.1/DTD/svg11.dtd">
<!-- Generated by graphviz version 2.43.0 (0)
 -->
<!-- Title: pastafarianism Pages: 1 -->
<svg width="213pt" height="208pt"
 viewBox="0.00 0.00 213.49 208.00" xmlns="http://www.w3.org/2000/svg" xmlns:xlink="http://www.w3.org/1999/xlink">
<g id="graph0" class="graph" transform="scale(1 1) rotate(0) translate(4 204)">
<title>pastafarianism</title>
<polygon fill="white" stroke="transparent" points="-4,4 -4,-204 209.49,-204 209.49,4 -4,4"/>
<!-- Parallel -->
<g id="node1" class="node">
<title>Parallel</title>
<polygon fill="gold" stroke="black" points="178.48,-200 36.39,-200 -0.16,-144 141.93,-144 178.48,-200"/>
<text text-anchor="middle" x="89.16" y="-174.8" font-family="Times,serif" font-size="9.00">Parallel</text>
<text text-anchor="middle" x="89.16" y="-164.8" font-family="Times,serif" font-size="9.00">SuccessOnOne</text>
</g>
<!-- Context -->
<g id="node2" class="node">
<title>Context</title>
<ellipse fill="gray" stroke="black" cx="46.16" cy="-90" rx="30.7" ry="18"/>
<text text-anchor="middle" x="46.16" y="-87.8" font-family="Times,serif" font-size="9.00">Context</text>
</g>
<!-- Parallel&#45;&gt;Context -->
<g id="edge1" class="edge">
<title>Parallel&#45;&gt;Context</title>
<path fill="none" stroke="black" d="M74.6,-143.92C69.81,-134.99 64.5,-125.11 59.77,-116.33"/>
<polygon fill="black" stroke="black" points="62.75,-114.47 54.93,-107.32 56.59,-117.79 62.75,-114.47"/>
</g>
<!-- Sequence -->
<g id="node3" class="node">
<title>Sequence</title>
<polygon fill="orange" stroke="black" points="169.16,-108 95.16,-108 95.16,-72 169.16,-72 169.16,-108"/>
<text text-anchor="middle" x="132.16" y="-87.8" font-family="Times,serif" font-size="9.00">Ⓜ Sequence</text>
</g>
<!-- Parallel&#45;&gt;Sequence -->
<g id="edge2" class="edge">
<title>Parallel&#45;&gt;Sequence</title>
<path fill="none" stroke="black" d="M103.72,-143.92C108.37,-135.26 113.51,-125.7 118.12,-117.12"/>
<polygon fill="black" stroke="black" points="121.23,-118.74 122.88,-108.27 115.06,-115.42 121.23,-118.74"/>
</g>
<!-- Action 1 -->
<g id="node4" class="node">
<title>Action 1</title>
<ellipse fill="gray" stroke="black" cx="90.16" cy="-18" rx="32.16" ry="18"/>
<text text-anchor="middle" x="90.16" y="-15.8" font-family="Times,serif" font-size="9.00">Action 1</text>
</g>
<!-- Sequence&#45;&gt;Action 1 -->
<g id="edge3" class="edge">
<title>Sequence&#45;&gt;Action 1</title>
<path fill="none" stroke="black" d="M121.78,-71.7C116.82,-63.44 110.8,-53.39 105.34,-44.3"/>
<polygon fill="black" stroke="black" points="108.28,-42.4 100.13,-35.62 102.28,-46 108.28,-42.4"/>
</g>
<!-- Action 2 -->
<g id="node5" class="node">
<title>Action 2</title>
<ellipse fill="gray" stroke="black" cx="173.16" cy="-18" rx="32.16" ry="18"/>
<text text-anchor="middle" x="173.16" y="-15.8" font-family="Times,serif" font-size="9.00">Action 2</text>
</g>
<!-- Sequence&#45;&gt;Action 2 -->
<g id="edge4" class="edge">
<title>Sequence&#45;&gt;Action 2</title>
<path fill="none" stroke="black" d="M142.3,-71.7C147.13,-63.44 153.02,-53.39 158.34,-44.3"/>
<polygon fill="black" stroke="black" points="161.39,-46.02 163.42,-35.62 155.35,-42.48 161.39,-46.02"/>
</g>
</g>
</svg>
