<?xml version="1.0" encoding="UTF-8" standalone="no"?>
<!DOCTYPE svg PUBLIC "-//W3C//DTD SVG 1.1//EN"
 "http://www.w3.org/Graphics/SVG/1.1/DTD/svg11.dtd">
<!-- Generated by graphviz version 2.43.0 (0)
 -->
<!-- Title: pastafarianism Pages: 1 -->
<svg width="239pt" height="116pt"
 viewBox="0.00 0.00 238.66 116.00" xmlns="http://www.w3.org/2000/svg" xmlns:xlink="http://www.w3.org/1999/xlink">
<g id="graph0" class="graph" transform="scale(1 1) rotate(0) translate(4 112)">
<title>pastafarianism</title>
<polygon fill="white" stroke="transparent" points="-4,4 -4,-112 234.66,-112 234.66,4 -4,4"/>
<!-- Sequence -->
<g id="node1" class="node">
<title>Sequence</title>
<polygon fill="orange" stroke="black" points="152.33,-108 78.33,-108 78.33,-72 152.33,-72 152.33,-108"/>
<text text-anchor="middle" x="115.33" y="-87.8" font-family="Times,serif" font-size="9.00">Ⓜ Sequence</text>
</g>
<!-- Action 1 -->
<g id="node2" class="node">
<title>Action 1</title>
<ellipse fill="gray" stroke="black" cx="32.33" cy="-18" rx="32.16" ry="18"/>
<text text-anchor="middle" x="32.33" y="-15.8" font-family="Times,serif" font-size="9.00">Action 1</text>
</g>
<!-- Sequence&#45;&gt;Action 1 -->
<g id="edge1" class="edge">
<title>Sequence&#45;&gt;Action 1</title>
<path fill="none" stroke="black" d="M94.81,-71.7C83.5,-62.16 69.37,-50.24 57.41,-40.15"/>
<polygon fill="black" stroke="black" points="59.43,-37.28 49.53,-33.51 54.92,-42.63 59.43,-37.28"/>
</g>
<!-- Action 2 -->
<g id="node3" class="node">
<title>Action 2</title>
<ellipse fill="gray" stroke="black" cx="115.33" cy="-18" rx="32.16" ry="18"/>
<text text-anchor="middle" x="115.33" y="-15.8" font-family="Times,serif" font-size="9.00">Action 2</text>
</g>
<!-- Sequence&#45;&gt;Action 2 -->
<g id="edge2" class="edge">
<title>Sequence&#45;&gt;Action 2</title>
<path fill="none" stroke="black" d="M115.33,-71.7C115.33,-63.98 115.33,-54.71 115.33,-46.11"/>
<polygon fill="black" stroke="black" points="118.83,-46.1 115.33,-36.1 111.83,-46.1 118.83,-46.1"/>
</g>
<!-- Action 3 -->
<g id="node4" class="node">
<title>Action 3</title>
<ellipse fill="gray" stroke="black" cx="198.33" cy="-18" rx="32.16" ry="18"/>
<text text-anchor="middle" x="198.33" y="-15.8" font-family="Times,serif" font-size="9.00">Action 3</text>
</g>
<!-- Sequence&#45;&gt;Action 3 -->
<g id="edge3" class="edge">
<title>Sequence&#45;&gt;Action 3</title>
<path fill="none" stroke="black" d="M135.85,-71.7C147.16,-62.16 161.29,-50.24 173.26,-40.15"/>
<polygon fill="black" stroke="black" points="175.74,-42.63 181.13,-33.51 171.23,-37.28 175.74,-42.63"/>
</g>
</g>
</svg>
