<?xml version="1.0" encoding="UTF-8" standalone="no"?>
<!DOCTYPE svg PUBLIC "-//W3C//DTD SVG 1.1//EN"
 "http://www.w3.org/Graphics/SVG/1.1/DTD/svg11.dtd">
<!-- Generated by graphviz version 2.43.0 (0)
 -->
<!-- Title: pastafarianism Pages: 1 -->
<svg width="289pt" height="313pt"
 viewBox="0.00 0.00 289.31 313.00" xmlns="http://www.w3.org/2000/svg" xmlns:xlink="http://www.w3.org/1999/xlink">
<g id="graph0" class="graph" transform="scale(1 1) rotate(0) translate(4 309)">
<title>pastafarianism</title>
<polygon fill="white" stroke="transparent" points="-4,4 -4,-309 285.31,-309 285.31,4 -4,4"/>
<!-- Ke Goal -->
<g id="node1" class="node">
<title>Ke Goal</title>
<polygon fill="orange" stroke="black" points="133.15,-305 79.15,-305 79.15,-269 133.15,-269 133.15,-305"/>
<text text-anchor="middle" x="106.15" y="-284.8" font-family="Times,serif" font-size="9.00">Ke Goal</text>
</g>
<!-- Pose to BB -->
<g id="node2" class="node">
<title>Pose to BB</title>
<ellipse fill="gray" stroke="black" cx="60.15" cy="-215" rx="38.21" ry="18"/>
<text text-anchor="middle" x="60.15" y="-212.8" font-family="Times,serif" font-size="9.00">Pose to BB</text>
</g>
<!-- Ke Goal&#45;&gt;Pose to BB -->
<g id="edge1" class="edge">
<title>Ke Goal&#45;&gt;Pose to BB</title>
<path fill="none" stroke="black" d="M94.78,-268.7C89.3,-260.35 82.62,-250.18 76.59,-241.02"/>
<polygon fill="black" stroke="black" points="79.49,-239.06 71.07,-232.62 73.64,-242.9 79.49,-239.06"/>
</g>
<!-- Navigasi -->
<g id="node3" class="node">
<title>Navigasi</title>
<polygon fill="cyan" stroke="black" points="187.89,-207.54 187.89,-222.46 166.96,-233 137.35,-233 116.41,-222.46 116.41,-207.54 137.35,-197 166.96,-197 187.89,-207.54"/>
<text text-anchor="middle" x="152.15" y="-212.8" font-family="Times,serif" font-size="9.00">Navigasi</text>
</g>
<!-- Ke Goal&#45;&gt;Navigasi -->
<g id="edge2" class="edge">
<title>Ke Goal&#45;&gt;Navigasi</title>
<path fill="none" stroke="black" d="M117.52,-268.7C122.87,-260.56 129.36,-250.69 135.26,-241.7"/>
<polygon fill="black" stroke="black" points="138.34,-243.38 140.91,-233.1 132.49,-239.54 138.34,-243.38"/>
</g>
<!-- /pose -->
<g id="node7" class="node">
<title>/pose</title>
<polygon fill="white" stroke="blue" points="99.15,-17 35.15,-17 35.15,0 99.15,0 99.15,-17"/>
<text text-anchor="middle" x="67.15" y="-6.6" font-family="Times,serif" font-size="8.00" fill="blue">/pose: None</text>
</g>
<!-- Pose to BB&#45;&gt;/pose -->
<g id="edge8" class="edge">
<title>Pose to BB&#45;&gt;/pose</title>
<path fill="none" stroke="blue" d="M38.38,-200.17C25.81,-190.81 11.14,-177.23 4.15,-161 -2.17,-146.3 0.2,-140.5 4.15,-125 14.03,-86.25 39.87,-46.48 55.21,-25.21"/>
<polygon fill="blue" stroke="blue" points="58.12,-27.16 61.25,-17.04 52.49,-23 58.12,-27.16"/>
</g>
<!-- Sudah sampai target? -->
<g id="node4" class="node">
<title>Sudah sampai target?</title>
<ellipse fill="gray" stroke="black" cx="81.15" cy="-143" rx="67.6" ry="18"/>
<text text-anchor="middle" x="81.15" y="-140.8" font-family="Times,serif" font-size="9.00">Sudah sampai target?</text>
</g>
<!-- Navigasi&#45;&gt;Sudah sampai target? -->
<g id="edge3" class="edge">
<title>Navigasi&#45;&gt;Sudah sampai target?</title>
<path fill="none" stroke="black" d="M135.68,-197.76C126.67,-188.88 115.34,-177.71 105.35,-167.85"/>
<polygon fill="black" stroke="black" points="107.6,-165.16 98.02,-160.63 102.69,-170.15 107.6,-165.16"/>
</g>
<!-- MoveTo (maks 8s) -->
<g id="node5" class="node">
<title>MoveTo (maks 8s)</title>
<ellipse fill="ghostwhite" stroke="black" cx="224.15" cy="-143" rx="57.32" ry="18"/>
<text text-anchor="middle" x="224.15" y="-140.8" font-family="Times,serif" font-size="9.00">MoveTo (maks 8s)</text>
</g>
<!-- Navigasi&#45;&gt;MoveTo (maks 8s) -->
<g id="edge4" class="edge">
<title>Navigasi&#45;&gt;MoveTo (maks 8s)</title>
<path fill="none" stroke="black" d="M168.85,-197.76C177.99,-188.88 189.48,-177.71 199.62,-167.85"/>
<polygon fill="black" stroke="black" points="202.31,-170.11 207.04,-160.63 197.43,-165.09 202.31,-170.11"/>
</g>
<!-- Gerak ke Goal -->
<g id="node6" class="node">
<title>Gerak ke Goal</title>
<ellipse fill="gray" stroke="black" cx="224.15" cy="-71" rx="47.19" ry="18"/>
<text text-anchor="middle" x="224.15" y="-68.8" font-family="Times,serif" font-size="9.00">Gerak ke Goal</text>
</g>
<!-- MoveTo (maks 8s)&#45;&gt;Gerak ke Goal -->
<g id="edge5" class="edge">
<title>MoveTo (maks 8s)&#45;&gt;Gerak ke Goal</title>
<path fill="none" stroke="black" d="M224.15,-124.7C224.15,-116.98 224.15,-107.71 224.15,-99.11"/>
<polygon fill="black" stroke="black" points="227.65,-99.1 224.15,-89.1 220.65,-99.1 227.65,-99.1"/>
</g>
<!-- /pose&#45;&gt;Sudah sampai target? -->
<g id="edge7" class="edge">
<title>/pose&#45;&gt;Sudah sampai target?</title>
<path fill="none" stroke="green" d="M67.95,-17.09C69.91,-35.64 75.03,-84.04 78.28,-114.86"/>
<polygon fill="green" stroke="green" points="74.82,-115.37 79.35,-124.95 81.78,-114.64 74.82,-115.37"/>
</g>
<!-- /pose&#45;&gt;Gerak ke Goal -->
<g id="edge6" class="edge">
<title>/pose&#45;&gt;Gerak ke Goal</title>
<path fill="none" stroke="green" d="M86.86,-17.09C110.68,-26.27 151.41,-41.97 182.34,-53.89"/>
<polygon fill="green" stroke="green" points="181.41,-57.28 192,-57.61 183.93,-50.75 181.41,-57.28"/>
</g>
</g>
</svg>
